<?xml version="1.0" standalone="no"?>
<!DOCTYPE svg PUBLIC "-//W3C//DTD SVG 20010904//EN"
 "http://www.w3.org/TR/2001/REC-SVG-20010904/DTD/svg10.dtd">
<svg version="1.0" xmlns="http://www.w3.org/2000/svg"
 width="459.000000pt" height="459.000000pt" viewBox="0 0 459.000000 459.000000"
 preserveAspectRatio="xMidYMid meet">
<metadata>
Created by potrace 1.14, written by Peter Selinger 2001-2017
</metadata>
<g transform="translate(0.000000,459.000000) scale(0.100000,-0.100000)"
fill="#000000" stroke="none">
<path d="M1502 4578 c-121 -13 -264 -70 -337 -134 -16 -14 -41 -36 -55 -48
-14 -12 -41 -42 -61 -66 -216 -273 -186 -665 69 -904 130 -122 366 -265 577
-351 39 -16 73 -31 77 -34 4 -3 -291 -6 -655 -5 -502 0 -673 -3 -706 -12 -53
-15 -96 -55 -112 -101 -7 -23 -11 -175 -11 -468 -1 -486 -2 -478 74 -538 34
-27 44 -30 154 -36 l117 -6 -1 -859 c-1 -535 2 -873 8 -895 11 -41 61 -94 103
-110 20 -8 497 -11 1554 -11 1517 0 1526 0 1562 21 20 11 48 36 61 56 l25 37
3 883 2 883 90 1 c50 1 93 2 98 3 4 1 21 5 37 9 37 9 78 46 102 90 15 29 17
76 17 477 0 484 1 474 -57 528 -50 47 -69 48 -774 48 -363 -1 -659 2 -657 5 2
4 16 10 31 14 15 3 60 22 100 41 40 19 75 34 77 34 24 0 308 177 391 244 169
137 263 313 270 508 10 282 -135 521 -386 637 -98 45 -179 62 -289 62 -86 0
-105 -3 -200 -33 -178 -56 -326 -195 -471 -440 -18 -32 -36 -58 -39 -58 -3 0
-22 29 -42 64 -88 150 -206 288 -303 355 -123 84 -293 126 -443 109z m163
-442 c17 -8 48 -28 67 -45 71 -62 228 -318 277 -451 23 -64 61 -198 61 -218 0
-45 -294 69 -486 189 -178 110 -244 187 -250 291 -9 175 169 301 331 234z
m1419 6 c50 -14 103 -58 134 -111 22 -38 27 -58 27 -116 0 -113 -41 -168 -210
-280 -108 -72 -330 -182 -405 -201 -8 -2 -33 -8 -55 -13 -68 -17 -78 -15 -71
17 49 206 212 518 336 642 68 69 146 89 244 62z"/>
</g>
</svg>
